<svg width="24" height="24" viewBox="0 0 24 24" fill="none" xmlns="http://www.w3.org/2000/svg">
<g clip-path="url(#clip0_7_2777)">
<path d="M10.0001 11.9996C10.0001 12.2648 9.89476 12.5192 9.70723 12.7067C9.51969 12.8943 9.26534 12.9996 9.00012 12.9996H4.06912C4.31126 14.9323 5.25077 16.7101 6.71117 17.9989C8.17157 19.2878 10.0523 19.999 12.0001 19.999C13.9479 19.999 15.8287 19.2878 17.2891 17.9989C18.7495 16.7101 19.689 14.9323 19.9311 12.9996H15.0001C14.7349 12.9996 14.4806 12.8943 14.293 12.7067C14.1055 12.5192 14.0001 12.2648 14.0001 11.9996C14.0001 11.7344 14.1055 11.4801 14.293 11.2925C14.4806 11.105 14.7349 10.9996 15.0001 10.9996H20.0001V8.99962H15.0001C14.7349 8.99962 14.4806 8.89426 14.293 8.70673C14.1055 8.51919 14.0001 8.26484 14.0001 7.99962C14.0001 7.7344 14.1055 7.48005 14.293 7.29251C14.4806 7.10498 14.7349 6.99962 15.0001 6.99962H19.9311C19.689 5.06694 18.7495 3.28918 17.2891 2.00033C15.8287 0.711478 13.9479 0.000244141 12.0001 0.000244141C10.0523 0.000244141 8.17157 0.711478 6.71117 2.00033C5.25077 3.28918 4.31126 5.06694 4.06912 6.99962H9.00012C9.26534 6.99962 9.51969 7.10498 9.70723 7.29251C9.89476 7.48005 10.0001 7.7344 10.0001 7.99962C10.0001 8.26484 9.89476 8.51919 9.70723 8.70673C9.51969 8.89426 9.26534 8.99962 9.00012 8.99962H4.00012V10.9996H9.00012C9.26534 10.9996 9.51969 11.105 9.70723 11.2925C9.89476 11.4801 10.0001 11.7344 10.0001 11.9996Z" fill="#7265BA"/>
<path d="M23 12C22.7348 12 22.4804 12.1054 22.2929 12.2929C22.1054 12.4804 22 12.7348 22 13C21.9974 15.3861 21.0483 17.6738 19.361 19.361C17.6738 21.0483 15.3861 21.9974 13 22H11C8.61395 21.9971 6.32645 21.0479 4.63925 19.3607C2.95206 17.6735 2.00291 15.3861 2 13C2 12.7348 1.89464 12.4804 1.70711 12.2929C1.51957 12.1054 1.26522 12 1 12C0.734784 12 0.48043 12.1054 0.292893 12.2929C0.105357 12.4804 0 12.7348 0 13C0.00344047 15.9163 1.16347 18.7122 3.22563 20.7744C5.28778 22.8365 8.08367 23.9966 11 24H13C15.9163 23.9966 18.7122 22.8365 20.7744 20.7744C22.8365 18.7122 23.9966 15.9163 24 13C24 12.7348 23.8946 12.4804 23.7071 12.2929C23.5196 12.1054 23.2652 12 23 12Z" fill="#7265BA"/>
</g>
<defs>
<clipPath id="clip0_7_2777">
<rect width="24" height="24" fill="white"/>
</clipPath>
</defs>
</svg>
